<svg xmlns="http://www.w3.org/2000/svg" xmlns:xlink="http://www.w3.org/1999/xlink" width="500" zoomAndPan="magnify" viewBox="0 0 375 374.999991" height="500" preserveAspectRatio="xMidYMid meet" version="1.0"><defs><g/></defs><g fill="#fd6155" fill-opacity="0.302"><g transform="translate(39.794098, 230.776578)"><g><path d="M 40.035156 -35.308594 C 37.390625 -22.539062 29.183594 -16.53125 22.144531 -15.304688 C 15.753906 -14.191406 11.035156 -17.1875 10.210938 -21.910156 C 10.035156 -22.929688 10.027344 -24.074219 10.1875 -25.339844 L 13.046875 -42.347656 C 13.496094 -44.714844 15.105469 -46.425781 16.585938 -46.683594 C 18.4375 -47.003906 19.558594 -46.054688 19.832031 -44.480469 C 20.011719 -43.460938 19.832031 -42.285156 19.410156 -40.878906 C 19.109375 -39.871094 18.992188 -38.894531 19.152344 -37.96875 C 19.71875 -34.726562 23.207031 -32.761719 26.449219 -33.324219 C 29.136719 -33.792969 31.714844 -35.957031 32.640625 -40.507812 C 33.132812 -43.171875 33.117188 -45.457031 32.746094 -47.585938 C 31.230469 -56.292969 23.136719 -60.035156 15.171875 -58.648438 C 7.855469 -57.375 0.726562 -51.746094 -0.917969 -41.441406 L -3.488281 -24.964844 C -3.839844 -22.613281 -3.824219 -20.324219 -3.46875 -18.289062 C -1.617188 -7.636719 8.984375 -1.5625 22.597656 -3.933594 C 36.304688 -6.320312 48.46875 -16.453125 51.464844 -34.339844 C 51.628906 -35.035156 51.609375 -35.699219 51.511719 -36.253906 C 50.996094 -39.21875 47.800781 -40.570312 44.929688 -40.070312 C 42.617188 -39.667969 40.492188 -38.152344 40.035156 -35.308594 Z M 40.035156 -35.308594 "/></g></g></g><g fill="#fd6155" fill-opacity="0.302"><g transform="translate(81.189537, 223.571024)"><g><path d="M 35.804688 -26.175781 C 35.820312 -26.082031 35.5625 -27.5625 34.886719 -29.257812 C 35.453125 -29.835938 35.972656 -30.6875 36.382812 -31.617188 C 37.554688 -34.207031 38.929688 -42.75 38.285156 -46.453125 C 36.640625 -55.898438 27.765625 -60.84375 17.765625 -59.101562 C 9.058594 -57.585938 1.65625 -51.335938 0.125 -42.578125 L -3.3125 -22.324219 C -3.742188 -19.863281 -3.710938 -17.484375 -3.355469 -15.445312 C -1.664062 -5.722656 7.6875 -1.339844 17.132812 -2.980469 C 24.355469 -4.238281 30.527344 -7.699219 33.257812 -15.042969 C 35.003906 -14.871094 37 -14.933594 38.941406 -15.269531 C 49.871094 -17.171875 57.128906 -26.453125 58.585938 -36.722656 C 58.6875 -37.789062 58.710938 -38.75 58.566406 -39.582031 C 57.96875 -43.007812 55.128906 -44.519531 52.445312 -44.050781 C 49.945312 -43.617188 47.609375 -41.683594 47.1875 -38.078125 C 46.148438 -31.980469 42.582031 -27.257812 37.117188 -26.308594 C 36.746094 -26.242188 36.191406 -26.144531 35.804688 -26.175781 Z M 24.710938 -38.9375 C 24.578125 -38.054688 24.429688 -37.265625 24.464844 -36.507812 C 19.273438 -36.179688 15.460938 -31.21875 16.429688 -25.664062 C 17.070312 -22.53125 18.933594 -21.136719 20.953125 -19.964844 C 20.3125 -16.511719 17.898438 -14.46875 15.027344 -13.96875 C 11.417969 -13.34375 10.105469 -15.402344 9.71875 -17.625 C 9.410156 -19.386719 9.585938 -21.132812 9.792969 -22.125 L 13.097656 -42.066406 C 13.675781 -45.316406 16.609375 -47.640625 19.480469 -48.140625 C 22.351562 -48.640625 24.542969 -47.019531 24.914062 -44.886719 C 25.203125 -43.222656 25.019531 -40.996094 24.710938 -38.9375 Z M 24.710938 -38.9375 "/></g></g></g><g fill="#fd6155" fill-opacity="0.302"><g transform="translate(129.53052, 215.156483)"><g><path d="M 47.035156 -35.667969 C 44.894531 -23.84375 40.589844 -18.417969 36.238281 -17.664062 C 34.570312 -17.371094 33.5 -18.042969 33.226562 -19.617188 C 33.113281 -20.265625 33.167969 -21.039062 33.285156 -22.015625 L 36.929688 -43.832031 C 37.253906 -45.796875 37.335938 -47.527344 37.0625 -49.101562 C 35.773438 -56.511719 28.507812 -60.972656 21.097656 -59.679688 C 17.488281 -59.054688 14.761719 -57.71875 12.660156 -55.542969 C 11.8125 -57.109375 9.335938 -57.632812 6.835938 -57.199219 C 4.242188 -56.746094 1.953125 -55.109375 1.476562 -52.355469 L -6.460938 -6.414062 C -6.59375 -5.53125 -6.554688 -4.773438 -6.425781 -4.035156 C -5.832031 -0.605469 -2.839844 0.683594 0.125 0.167969 C 3.367188 -0.394531 6.714844 -3.078125 7.378906 -7.488281 C 9.058594 -17.035156 11.292969 -30.496094 12.894531 -39.933594 C 14.589844 -45 17.445312 -47.785156 20.039062 -48.238281 C 21.703125 -48.527344 23.101562 -47.625 23.40625 -45.867188 C 23.519531 -45.21875 23.480469 -44.351562 23.347656 -43.472656 L 19.90625 -23.214844 C 19.539062 -20.957031 19.429688 -18.839844 19.769531 -16.894531 C 21.25 -8.375 29.078125 -5.0625 36.953125 -6.433594 C 46.398438 -8.078125 55.378906 -16.222656 58.625 -35.394531 C 58.773438 -36.183594 58.832031 -36.957031 58.71875 -37.605469 C 58.203125 -40.570312 55.242188 -41.675781 52.464844 -41.191406 C 49.964844 -40.757812 47.429688 -38.882812 47.035156 -35.667969 Z M 47.035156 -35.667969 "/></g></g></g><g fill="#fd6155" fill-opacity="0.302"><g transform="translate(178.149331, 206.693582)"><g><path d="M 46.519531 -36.4375 C 45.703125 -31.808594 43.820312 -28.90625 40.394531 -28.308594 C 37.339844 -27.777344 35.425781 -29.449219 34.992188 -31.949219 C 34.863281 -32.6875 34.886719 -33.648438 35.019531 -34.53125 C 38.441406 -44.476562 40.828125 -49.949219 39.941406 -55.042969 C 39.148438 -59.578125 36.007812 -62.277344 30.914062 -61.390625 C 21.5625 -59.761719 17.183594 -45.449219 18.890625 -35.632812 C 19.277344 -33.410156 20.003906 -31.4375 21.066406 -29.714844 L 17.3125 -21.140625 C 16.277344 -18.863281 13.789062 -14.519531 12.492188 -14.292969 C 12.214844 -14.242188 11.980469 -14.488281 11.882812 -15.046875 C 11.738281 -15.878906 11.6875 -16.726562 11.789062 -17.796875 L 13.652344 -48.75 C 13.75 -49.816406 13.683594 -50.757812 13.539062 -51.589844 C 12.765625 -56.035156 9.335938 -57.632812 6.097656 -57.070312 C 2.761719 -56.488281 -0.203125 -53.78125 -0.433594 -49.636719 L -1.941406 -18.269531 C -2.019531 -16.535156 -1.914062 -14.835938 -1.65625 -13.355469 C -0.222656 -5.113281 5.925781 -1.03125 13.152344 -2.289062 C 19.726562 -3.433594 22.25 -7.023438 27.136719 -15.125 L 29.839844 -19.886719 C 32.964844 -17.28125 37.34375 -16.234375 42.253906 -17.085938 C 51.234375 -18.652344 56.949219 -25.847656 58.160156 -35.886719 C 58.246094 -36.472656 58.167969 -36.9375 58.085938 -37.398438 C 57.554688 -40.457031 54.359375 -41.808594 51.492188 -41.308594 C 49.082031 -40.890625 46.976562 -39.28125 46.519531 -36.4375 Z M 46.519531 -36.4375 "/></g></g></g><g fill="#fd6155" fill-opacity="0.302"><g transform="translate(226.212494, 198.327401)"><g><path d="M 42.316406 -34.273438 C 40.109375 -22.820312 31.144531 -16.777344 23.273438 -15.40625 C 16.511719 -14.226562 11.6875 -16.726562 10.945312 -20.988281 C 10.800781 -21.820312 10.746094 -22.671875 10.957031 -23.660156 L 11.390625 -25.550781 C 14.367188 -24.351562 17.894531 -23.820312 21.597656 -24.464844 C 30.027344 -25.933594 36.515625 -32.5 37.566406 -41.269531 C 37.722656 -43.109375 37.695312 -44.917969 37.421875 -46.492188 C 35.890625 -55.289062 27.765625 -60.84375 17.300781 -59.019531 C 9.058594 -57.585938 1.839844 -51.367188 0.210938 -41.542969 L -2.496094 -24.753906 C -2.851562 -22.402344 -2.925781 -20.101562 -2.554688 -17.96875 C -0.636719 -6.949219 10.929688 -1.902344 24.449219 -4.253906 C 37.320312 -6.496094 50.859375 -15.339844 53.890625 -34.09375 C 54.039062 -34.882812 54.019531 -35.546875 53.921875 -36.101562 C 53.421875 -38.972656 50.554688 -40.097656 47.777344 -39.613281 C 45.183594 -39.160156 42.648438 -37.289062 42.316406 -34.273438 Z M 18.925781 -48.042969 C 21.519531 -48.496094 23.558594 -46.65625 24.023438 -43.96875 C 24.152344 -43.230469 24.191406 -42.472656 24.039062 -41.683594 C 23.648438 -38.464844 21.0625 -36.871094 18.285156 -36.386719 C 16.523438 -36.082031 14.699219 -36.144531 13.273438 -36.660156 L 14.25 -42.554688 C 14.769531 -45.605469 16.796875 -47.671875 18.925781 -48.042969 Z M 18.925781 -48.042969 "/></g></g></g><g fill="#fd6155" fill-opacity="0.302"><g transform="translate(270.108325, 190.686612)"><g><path d="M 42.277344 -35.03125 C 40.339844 -25.339844 36.792969 -17.757812 32.902344 -17.082031 C 31.605469 -16.855469 30.75 -17.945312 30.523438 -19.242188 C 30.425781 -19.800781 30.390625 -20.554688 30.539062 -21.34375 L 33.359375 -37.484375 C 33.59375 -39.433594 33.671875 -41.164062 33.398438 -42.738281 C 31.867188 -51.539062 20.109375 -53.308594 14.648438 -53.980469 C 14.796875 -54.769531 14.746094 -55.617188 14.617188 -56.359375 C 13.875 -60.617188 9.449219 -63.570312 5.28125 -62.84375 C -0.183594 -61.894531 -2.585938 -56.511719 -1.667969 -51.234375 C -1.261719 -48.917969 -0.0117188 -46.65625 1.792969 -45.0625 L -1.792969 -25.640625 C -1.847656 -24.867188 -1.8125 -24.109375 -1.714844 -23.554688 C -1.183594 -20.5 1.5 -19.34375 4.09375 -19.796875 C 6.683594 -20.246094 9.113281 -22.195312 9.707031 -25.351562 L 12.476562 -40.148438 C 15.214844 -39.765625 18.753906 -39.714844 19.300781 -36.566406 C 19.382812 -36.101562 19.386719 -35.53125 19.316406 -34.847656 L 17.207031 -22.839844 C 16.835938 -20.582031 16.804688 -18.574219 17.125 -16.722656 C 18.527344 -8.664062 25.839844 -4.496094 33.523438 -5.835938 C 43.621094 -7.59375 51.222656 -18.171875 53.964844 -34.773438 C 54.050781 -35.363281 54.0625 -35.839844 53.984375 -36.304688 C 53.5 -39.082031 50.121094 -40.402344 47.15625 -39.886719 C 44.75 -39.46875 42.628906 -37.953125 42.277344 -35.03125 Z M 42.277344 -35.03125 "/></g></g></g><g fill="#fd6155" fill-opacity="0.302"><g transform="translate(313.911562, 183.06194)"><g><path d="M 28.515625 -31.871094 C 26.585938 -21.039062 21.605469 -15.113281 16.234375 -14.179688 C 12.898438 -13.601562 10.507812 -15.28125 10.070312 -17.78125 C 9.960938 -18.429688 10.015625 -19.203125 10.085938 -19.886719 L 14.664062 -47.304688 L 20.6875 -48.351562 C 25.410156 -49.171875 27.328125 -52.941406 26.796875 -56 C 26.378906 -58.40625 24.433594 -60.261719 20.914062 -59.648438 L 16.746094 -58.925781 L 19.808594 -78.0625 C 19.878906 -78.742188 19.875 -79.316406 19.777344 -79.871094 C 19.183594 -83.296875 16.292969 -85.65625 12.214844 -84.949219 C 9.160156 -84.414062 6.9375 -81.832031 6.390625 -78.398438 L 2.578125 -56.457031 L -1.3125 -55.78125 C -6.3125 -54.910156 -7.894531 -51.390625 -7.378906 -48.425781 C -6.929688 -45.832031 -4.96875 -43.886719 -2.46875 -44.320312 L 0.589844 -44.851562 L -3.304688 -21.179688 L -3.320312 -21.273438 C -3.675781 -18.921875 -3.691406 -16.820312 -3.351562 -14.875 C -1.707031 -5.425781 7.6875 -1.339844 17.226562 -3 C 29.078125 -5.0625 37.457031 -15.585938 40.09375 -31.691406 C 40.164062 -32.371094 40.238281 -33.050781 40.140625 -33.609375 C 39.65625 -36.386719 36.664062 -37.679688 33.792969 -37.179688 C 31.480469 -36.777344 29.109375 -35.027344 28.515625 -31.871094 Z M 28.515625 -31.871094 "/></g></g></g><g fill="#fd6155" fill-opacity="0.502"><g transform="translate(35.40167, 225.876719)"><g><path d="M 40.035156 -35.308594 C 37.390625 -22.539062 29.183594 -16.53125 22.144531 -15.304688 C 15.753906 -14.191406 11.035156 -17.1875 10.210938 -21.910156 C 10.035156 -22.929688 10.027344 -24.074219 10.1875 -25.339844 L 13.046875 -42.347656 C 13.496094 -44.714844 15.105469 -46.425781 16.585938 -46.683594 C 18.4375 -47.003906 19.558594 -46.054688 19.832031 -44.480469 C 20.011719 -43.460938 19.832031 -42.285156 19.410156 -40.878906 C 19.109375 -39.871094 18.992188 -38.894531 19.152344 -37.96875 C 19.71875 -34.726562 23.207031 -32.761719 26.449219 -33.324219 C 29.136719 -33.792969 31.714844 -35.957031 32.640625 -40.507812 C 33.132812 -43.171875 33.117188 -45.457031 32.746094 -47.585938 C 31.230469 -56.292969 23.136719 -60.035156 15.171875 -58.648438 C 7.855469 -57.375 0.726562 -51.746094 -0.917969 -41.441406 L -3.488281 -24.964844 C -3.839844 -22.613281 -3.824219 -20.324219 -3.46875 -18.289062 C -1.617188 -7.636719 8.984375 -1.5625 22.597656 -3.933594 C 36.304688 -6.320312 48.46875 -16.453125 51.464844 -34.339844 C 51.628906 -35.035156 51.609375 -35.699219 51.511719 -36.253906 C 50.996094 -39.21875 47.800781 -40.570312 44.929688 -40.070312 C 42.617188 -39.667969 40.492188 -38.152344 40.035156 -35.308594 Z M 40.035156 -35.308594 "/></g></g></g><g fill="#fd6155" fill-opacity="0.502"><g transform="translate(76.797109, 218.671165)"><g><path d="M 35.804688 -26.175781 C 35.820312 -26.082031 35.5625 -27.5625 34.886719 -29.257812 C 35.453125 -29.835938 35.972656 -30.6875 36.382812 -31.617188 C 37.554688 -34.207031 38.929688 -42.75 38.285156 -46.453125 C 36.640625 -55.898438 27.765625 -60.84375 17.765625 -59.101562 C 9.058594 -57.585938 1.65625 -51.335938 0.125 -42.578125 L -3.3125 -22.324219 C -3.742188 -19.863281 -3.710938 -17.484375 -3.355469 -15.445312 C -1.664062 -5.722656 7.6875 -1.339844 17.132812 -2.980469 C 24.355469 -4.238281 30.527344 -7.699219 33.257812 -15.042969 C 35.003906 -14.871094 37 -14.933594 38.941406 -15.269531 C 49.871094 -17.171875 57.128906 -26.453125 58.585938 -36.722656 C 58.6875 -37.789062 58.710938 -38.75 58.566406 -39.582031 C 57.96875 -43.007812 55.128906 -44.519531 52.445312 -44.050781 C 49.945312 -43.617188 47.609375 -41.683594 47.1875 -38.078125 C 46.148438 -31.980469 42.582031 -27.257812 37.117188 -26.308594 C 36.746094 -26.242188 36.191406 -26.144531 35.804688 -26.175781 Z M 24.710938 -38.9375 C 24.578125 -38.054688 24.429688 -37.265625 24.464844 -36.507812 C 19.273438 -36.179688 15.460938 -31.21875 16.429688 -25.664062 C 17.070312 -22.53125 18.933594 -21.136719 20.953125 -19.964844 C 20.3125 -16.511719 17.898438 -14.46875 15.027344 -13.96875 C 11.417969 -13.34375 10.105469 -15.402344 9.71875 -17.625 C 9.410156 -19.386719 9.585938 -21.132812 9.792969 -22.125 L 13.097656 -42.066406 C 13.675781 -45.316406 16.609375 -47.640625 19.480469 -48.140625 C 22.351562 -48.640625 24.542969 -47.019531 24.914062 -44.886719 C 25.203125 -43.222656 25.019531 -40.996094 24.710938 -38.9375 Z M 24.710938 -38.9375 "/></g></g></g><g fill="#fd6155" fill-opacity="0.502"><g transform="translate(125.138092, 210.256624)"><g><path d="M 47.035156 -35.667969 C 44.894531 -23.84375 40.589844 -18.417969 36.238281 -17.664062 C 34.570312 -17.371094 33.5 -18.042969 33.226562 -19.617188 C 33.113281 -20.265625 33.167969 -21.039062 33.285156 -22.015625 L 36.929688 -43.832031 C 37.253906 -45.796875 37.335938 -47.527344 37.0625 -49.101562 C 35.773438 -56.511719 28.507812 -60.972656 21.097656 -59.679688 C 17.488281 -59.054688 14.761719 -57.71875 12.660156 -55.542969 C 11.8125 -57.109375 9.335938 -57.632812 6.835938 -57.199219 C 4.242188 -56.746094 1.953125 -55.109375 1.476562 -52.355469 L -6.460938 -6.414062 C -6.59375 -5.53125 -6.554688 -4.773438 -6.425781 -4.035156 C -5.832031 -0.605469 -2.839844 0.683594 0.125 0.167969 C 3.367188 -0.394531 6.714844 -3.078125 7.378906 -7.488281 C 9.058594 -17.035156 11.292969 -30.496094 12.894531 -39.933594 C 14.589844 -45 17.445312 -47.785156 20.039062 -48.238281 C 21.703125 -48.527344 23.101562 -47.625 23.40625 -45.867188 C 23.519531 -45.21875 23.480469 -44.351562 23.347656 -43.472656 L 19.90625 -23.214844 C 19.539062 -20.957031 19.429688 -18.839844 19.769531 -16.894531 C 21.25 -8.375 29.078125 -5.0625 36.953125 -6.433594 C 46.398438 -8.078125 55.378906 -16.222656 58.625 -35.394531 C 58.773438 -36.183594 58.832031 -36.957031 58.71875 -37.605469 C 58.203125 -40.570312 55.242188 -41.675781 52.464844 -41.191406 C 49.964844 -40.757812 47.429688 -38.882812 47.035156 -35.667969 Z M 47.035156 -35.667969 "/></g></g></g><g fill="#fd6155" fill-opacity="0.502"><g transform="translate(173.756903, 201.793723)"><g><path d="M 46.519531 -36.4375 C 45.703125 -31.808594 43.820312 -28.90625 40.394531 -28.308594 C 37.339844 -27.777344 35.425781 -29.449219 34.992188 -31.949219 C 34.863281 -32.6875 34.886719 -33.648438 35.019531 -34.53125 C 38.441406 -44.476562 40.828125 -49.949219 39.941406 -55.042969 C 39.148438 -59.578125 36.007812 -62.277344 30.914062 -61.390625 C 21.5625 -59.761719 17.183594 -45.449219 18.890625 -35.632812 C 19.277344 -33.410156 20.003906 -31.4375 21.066406 -29.714844 L 17.3125 -21.140625 C 16.277344 -18.863281 13.789062 -14.519531 12.492188 -14.292969 C 12.214844 -14.242188 11.980469 -14.488281 11.882812 -15.046875 C 11.738281 -15.878906 11.6875 -16.726562 11.789062 -17.796875 L 13.652344 -48.75 C 13.75 -49.816406 13.683594 -50.757812 13.539062 -51.589844 C 12.765625 -56.035156 9.335938 -57.632812 6.097656 -57.070312 C 2.761719 -56.488281 -0.203125 -53.78125 -0.433594 -49.636719 L -1.941406 -18.269531 C -2.019531 -16.535156 -1.914062 -14.835938 -1.65625 -13.355469 C -0.222656 -5.113281 5.925781 -1.03125 13.152344 -2.289062 C 19.726562 -3.433594 22.25 -7.023438 27.136719 -15.125 L 29.839844 -19.886719 C 32.964844 -17.28125 37.34375 -16.234375 42.253906 -17.085938 C 51.234375 -18.652344 56.949219 -25.847656 58.160156 -35.886719 C 58.246094 -36.472656 58.167969 -36.9375 58.085938 -37.398438 C 57.554688 -40.457031 54.359375 -41.808594 51.492188 -41.308594 C 49.082031 -40.890625 46.976562 -39.28125 46.519531 -36.4375 Z M 46.519531 -36.4375 "/></g></g></g><g fill="#fd6155" fill-opacity="0.502"><g transform="translate(221.820066, 193.427542)"><g><path d="M 42.316406 -34.273438 C 40.109375 -22.820312 31.144531 -16.777344 23.273438 -15.40625 C 16.511719 -14.226562 11.6875 -16.726562 10.945312 -20.988281 C 10.800781 -21.820312 10.746094 -22.671875 10.957031 -23.660156 L 11.390625 -25.550781 C 14.367188 -24.351562 17.894531 -23.820312 21.597656 -24.464844 C 30.027344 -25.933594 36.515625 -32.5 37.566406 -41.269531 C 37.722656 -43.109375 37.695312 -44.917969 37.421875 -46.492188 C 35.890625 -55.289062 27.765625 -60.84375 17.300781 -59.019531 C 9.058594 -57.585938 1.839844 -51.367188 0.210938 -41.542969 L -2.496094 -24.753906 C -2.851562 -22.402344 -2.925781 -20.101562 -2.554688 -17.96875 C -0.636719 -6.949219 10.929688 -1.902344 24.449219 -4.253906 C 37.320312 -6.496094 50.859375 -15.339844 53.890625 -34.09375 C 54.039062 -34.882812 54.019531 -35.546875 53.921875 -36.101562 C 53.421875 -38.972656 50.554688 -40.097656 47.777344 -39.613281 C 45.183594 -39.160156 42.648438 -37.289062 42.316406 -34.273438 Z M 18.925781 -48.042969 C 21.519531 -48.496094 23.558594 -46.65625 24.023438 -43.96875 C 24.152344 -43.230469 24.191406 -42.472656 24.039062 -41.683594 C 23.648438 -38.464844 21.0625 -36.871094 18.285156 -36.386719 C 16.523438 -36.082031 14.699219 -36.144531 13.273438 -36.660156 L 14.25 -42.554688 C 14.769531 -45.605469 16.796875 -47.671875 18.925781 -48.042969 Z M 18.925781 -48.042969 "/></g></g></g><g fill="#fd6155" fill-opacity="0.502"><g transform="translate(265.715898, 185.786753)"><g><path d="M 42.277344 -35.03125 C 40.339844 -25.339844 36.792969 -17.757812 32.902344 -17.082031 C 31.605469 -16.855469 30.75 -17.945312 30.523438 -19.242188 C 30.425781 -19.800781 30.390625 -20.554688 30.539062 -21.34375 L 33.359375 -37.484375 C 33.59375 -39.433594 33.671875 -41.164062 33.398438 -42.738281 C 31.867188 -51.539062 20.109375 -53.308594 14.648438 -53.980469 C 14.796875 -54.769531 14.746094 -55.617188 14.617188 -56.359375 C 13.875 -60.617188 9.449219 -63.570312 5.28125 -62.84375 C -0.183594 -61.894531 -2.585938 -56.511719 -1.667969 -51.234375 C -1.261719 -48.917969 -0.0117188 -46.65625 1.792969 -45.0625 L -1.792969 -25.640625 C -1.847656 -24.867188 -1.8125 -24.109375 -1.714844 -23.554688 C -1.183594 -20.5 1.5 -19.34375 4.09375 -19.796875 C 6.683594 -20.246094 9.113281 -22.195312 9.707031 -25.351562 L 12.476562 -40.148438 C 15.214844 -39.765625 18.753906 -39.714844 19.300781 -36.566406 C 19.382812 -36.101562 19.386719 -35.53125 19.316406 -34.847656 L 17.207031 -22.839844 C 16.835938 -20.582031 16.804688 -18.574219 17.125 -16.722656 C 18.527344 -8.664062 25.839844 -4.496094 33.523438 -5.835938 C 43.621094 -7.59375 51.222656 -18.171875 53.964844 -34.773438 C 54.050781 -35.363281 54.0625 -35.839844 53.984375 -36.304688 C 53.5 -39.082031 50.121094 -40.402344 47.15625 -39.886719 C 44.75 -39.46875 42.628906 -37.953125 42.277344 -35.03125 Z M 42.277344 -35.03125 "/></g></g></g><g fill="#fd6155" fill-opacity="0.502"><g transform="translate(309.519134, 178.162081)"><g><path d="M 28.515625 -31.871094 C 26.585938 -21.039062 21.605469 -15.113281 16.234375 -14.179688 C 12.898438 -13.601562 10.507812 -15.28125 10.070312 -17.78125 C 9.960938 -18.429688 10.015625 -19.203125 10.085938 -19.886719 L 14.664062 -47.304688 L 20.6875 -48.351562 C 25.410156 -49.171875 27.328125 -52.941406 26.796875 -56 C 26.378906 -58.40625 24.433594 -60.261719 20.914062 -59.648438 L 16.746094 -58.925781 L 19.808594 -78.0625 C 19.878906 -78.742188 19.875 -79.316406 19.777344 -79.871094 C 19.183594 -83.296875 16.292969 -85.65625 12.214844 -84.949219 C 9.160156 -84.414062 6.9375 -81.832031 6.390625 -78.398438 L 2.578125 -56.457031 L -1.3125 -55.78125 C -6.3125 -54.910156 -7.894531 -51.390625 -7.378906 -48.425781 C -6.929688 -45.832031 -4.96875 -43.886719 -2.46875 -44.320312 L 0.589844 -44.851562 L -3.304688 -21.179688 L -3.320312 -21.273438 C -3.675781 -18.921875 -3.691406 -16.820312 -3.351562 -14.875 C -1.707031 -5.425781 7.6875 -1.339844 17.226562 -3 C 29.078125 -5.0625 37.457031 -15.585938 40.09375 -31.691406 C 40.164062 -32.371094 40.238281 -33.050781 40.140625 -33.609375 C 39.65625 -36.386719 36.664062 -37.679688 33.792969 -37.179688 C 31.480469 -36.777344 29.109375 -35.027344 28.515625 -31.871094 Z M 28.515625 -31.871094 "/></g></g></g><g fill="#b0d6ed" fill-opacity="1"><g transform="translate(31.009243, 220.976861)"><g><path d="M 40.035156 -35.308594 C 37.390625 -22.539062 29.183594 -16.53125 22.144531 -15.304688 C 15.753906 -14.191406 11.035156 -17.1875 10.210938 -21.910156 C 10.035156 -22.929688 10.027344 -24.074219 10.1875 -25.339844 L 13.046875 -42.347656 C 13.496094 -44.714844 15.105469 -46.425781 16.585938 -46.683594 C 18.4375 -47.003906 19.558594 -46.054688 19.832031 -44.480469 C 20.011719 -43.460938 19.832031 -42.285156 19.410156 -40.878906 C 19.109375 -39.871094 18.992188 -38.894531 19.152344 -37.96875 C 19.71875 -34.726562 23.207031 -32.761719 26.449219 -33.324219 C 29.136719 -33.792969 31.714844 -35.957031 32.640625 -40.507812 C 33.132812 -43.171875 33.117188 -45.457031 32.746094 -47.585938 C 31.230469 -56.292969 23.136719 -60.035156 15.171875 -58.648438 C 7.855469 -57.375 0.726562 -51.746094 -0.917969 -41.441406 L -3.488281 -24.964844 C -3.839844 -22.613281 -3.824219 -20.324219 -3.46875 -18.289062 C -1.617188 -7.636719 8.984375 -1.5625 22.597656 -3.933594 C 36.304688 -6.320312 48.46875 -16.453125 51.464844 -34.339844 C 51.628906 -35.035156 51.609375 -35.699219 51.511719 -36.253906 C 50.996094 -39.21875 47.800781 -40.570312 44.929688 -40.070312 C 42.617188 -39.667969 40.492188 -38.152344 40.035156 -35.308594 Z M 40.035156 -35.308594 "/></g></g></g><g fill="#b0d6ed" fill-opacity="1"><g transform="translate(72.404682, 213.771306)"><g><path d="M 35.804688 -26.175781 C 35.820312 -26.082031 35.5625 -27.5625 34.886719 -29.257812 C 35.453125 -29.835938 35.972656 -30.6875 36.382812 -31.617188 C 37.554688 -34.207031 38.929688 -42.75 38.285156 -46.453125 C 36.640625 -55.898438 27.765625 -60.84375 17.765625 -59.101562 C 9.058594 -57.585938 1.65625 -51.335938 0.125 -42.578125 L -3.3125 -22.324219 C -3.742188 -19.863281 -3.710938 -17.484375 -3.355469 -15.445312 C -1.664062 -5.722656 7.6875 -1.339844 17.132812 -2.980469 C 24.355469 -4.238281 30.527344 -7.699219 33.257812 -15.042969 C 35.003906 -14.871094 37 -14.933594 38.941406 -15.269531 C 49.871094 -17.171875 57.128906 -26.453125 58.585938 -36.722656 C 58.6875 -37.789062 58.710938 -38.75 58.566406 -39.582031 C 57.96875 -43.007812 55.128906 -44.519531 52.445312 -44.050781 C 49.945312 -43.617188 47.609375 -41.683594 47.1875 -38.078125 C 46.148438 -31.980469 42.582031 -27.257812 37.117188 -26.308594 C 36.746094 -26.242188 36.191406 -26.144531 35.804688 -26.175781 Z M 24.710938 -38.9375 C 24.578125 -38.054688 24.429688 -37.265625 24.464844 -36.507812 C 19.273438 -36.179688 15.460938 -31.21875 16.429688 -25.664062 C 17.070312 -22.53125 18.933594 -21.136719 20.953125 -19.964844 C 20.3125 -16.511719 17.898438 -14.46875 15.027344 -13.96875 C 11.417969 -13.34375 10.105469 -15.402344 9.71875 -17.625 C 9.410156 -19.386719 9.585938 -21.132812 9.792969 -22.125 L 13.097656 -42.066406 C 13.675781 -45.316406 16.609375 -47.640625 19.480469 -48.140625 C 22.351562 -48.640625 24.542969 -47.019531 24.914062 -44.886719 C 25.203125 -43.222656 25.019531 -40.996094 24.710938 -38.9375 Z M 24.710938 -38.9375 "/></g></g></g><g fill="#b0d6ed" fill-opacity="1"><g transform="translate(120.745665, 205.356765)"><g><path d="M 47.035156 -35.667969 C 44.894531 -23.84375 40.589844 -18.417969 36.238281 -17.664062 C 34.570312 -17.371094 33.5 -18.042969 33.226562 -19.617188 C 33.113281 -20.265625 33.167969 -21.039062 33.285156 -22.015625 L 36.929688 -43.832031 C 37.253906 -45.796875 37.335938 -47.527344 37.0625 -49.101562 C 35.773438 -56.511719 28.507812 -60.972656 21.097656 -59.679688 C 17.488281 -59.054688 14.761719 -57.71875 12.660156 -55.542969 C 11.8125 -57.109375 9.335938 -57.632812 6.835938 -57.199219 C 4.242188 -56.746094 1.953125 -55.109375 1.476562 -52.355469 L -6.460938 -6.414062 C -6.59375 -5.53125 -6.554688 -4.773438 -6.425781 -4.035156 C -5.832031 -0.605469 -2.839844 0.683594 0.125 0.167969 C 3.367188 -0.394531 6.714844 -3.078125 7.378906 -7.488281 C 9.058594 -17.035156 11.292969 -30.496094 12.894531 -39.933594 C 14.589844 -45 17.445312 -47.785156 20.039062 -48.238281 C 21.703125 -48.527344 23.101562 -47.625 23.40625 -45.867188 C 23.519531 -45.21875 23.480469 -44.351562 23.347656 -43.472656 L 19.90625 -23.214844 C 19.539062 -20.957031 19.429688 -18.839844 19.769531 -16.894531 C 21.25 -8.375 29.078125 -5.0625 36.953125 -6.433594 C 46.398438 -8.078125 55.378906 -16.222656 58.625 -35.394531 C 58.773438 -36.183594 58.832031 -36.957031 58.71875 -37.605469 C 58.203125 -40.570312 55.242188 -41.675781 52.464844 -41.191406 C 49.964844 -40.757812 47.429688 -38.882812 47.035156 -35.667969 Z M 47.035156 -35.667969 "/></g></g></g><g fill="#b0d6ed" fill-opacity="1"><g transform="translate(169.364476, 196.893864)"><g><path d="M 46.519531 -36.4375 C 45.703125 -31.808594 43.820312 -28.90625 40.394531 -28.308594 C 37.339844 -27.777344 35.425781 -29.449219 34.992188 -31.949219 C 34.863281 -32.6875 34.886719 -33.648438 35.019531 -34.53125 C 38.441406 -44.476562 40.828125 -49.949219 39.941406 -55.042969 C 39.148438 -59.578125 36.007812 -62.277344 30.914062 -61.390625 C 21.5625 -59.761719 17.183594 -45.449219 18.890625 -35.632812 C 19.277344 -33.410156 20.003906 -31.4375 21.066406 -29.714844 L 17.3125 -21.140625 C 16.277344 -18.863281 13.789062 -14.519531 12.492188 -14.292969 C 12.214844 -14.242188 11.980469 -14.488281 11.882812 -15.046875 C 11.738281 -15.878906 11.6875 -16.726562 11.789062 -17.796875 L 13.652344 -48.75 C 13.75 -49.816406 13.683594 -50.757812 13.539062 -51.589844 C 12.765625 -56.035156 9.335938 -57.632812 6.097656 -57.070312 C 2.761719 -56.488281 -0.203125 -53.78125 -0.433594 -49.636719 L -1.941406 -18.269531 C -2.019531 -16.535156 -1.914062 -14.835938 -1.65625 -13.355469 C -0.222656 -5.113281 5.925781 -1.03125 13.152344 -2.289062 C 19.726562 -3.433594 22.25 -7.023438 27.136719 -15.125 L 29.839844 -19.886719 C 32.964844 -17.28125 37.34375 -16.234375 42.253906 -17.085938 C 51.234375 -18.652344 56.949219 -25.847656 58.160156 -35.886719 C 58.246094 -36.472656 58.167969 -36.9375 58.085938 -37.398438 C 57.554688 -40.457031 54.359375 -41.808594 51.492188 -41.308594 C 49.082031 -40.890625 46.976562 -39.28125 46.519531 -36.4375 Z M 46.519531 -36.4375 "/></g></g></g><g fill="#b0d6ed" fill-opacity="1"><g transform="translate(217.427639, 188.527683)"><g><path d="M 42.316406 -34.273438 C 40.109375 -22.820312 31.144531 -16.777344 23.273438 -15.40625 C 16.511719 -14.226562 11.6875 -16.726562 10.945312 -20.988281 C 10.800781 -21.820312 10.746094 -22.671875 10.957031 -23.660156 L 11.390625 -25.550781 C 14.367188 -24.351562 17.894531 -23.820312 21.597656 -24.464844 C 30.027344 -25.933594 36.515625 -32.5 37.566406 -41.269531 C 37.722656 -43.109375 37.695312 -44.917969 37.421875 -46.492188 C 35.890625 -55.289062 27.765625 -60.84375 17.300781 -59.019531 C 9.058594 -57.585938 1.839844 -51.367188 0.210938 -41.542969 L -2.496094 -24.753906 C -2.851562 -22.402344 -2.925781 -20.101562 -2.554688 -17.96875 C -0.636719 -6.949219 10.929688 -1.902344 24.449219 -4.253906 C 37.320312 -6.496094 50.859375 -15.339844 53.890625 -34.09375 C 54.039062 -34.882812 54.019531 -35.546875 53.921875 -36.101562 C 53.421875 -38.972656 50.554688 -40.097656 47.777344 -39.613281 C 45.183594 -39.160156 42.648438 -37.289062 42.316406 -34.273438 Z M 18.925781 -48.042969 C 21.519531 -48.496094 23.558594 -46.65625 24.023438 -43.96875 C 24.152344 -43.230469 24.191406 -42.472656 24.039062 -41.683594 C 23.648438 -38.464844 21.0625 -36.871094 18.285156 -36.386719 C 16.523438 -36.082031 14.699219 -36.144531 13.273438 -36.660156 L 14.25 -42.554688 C 14.769531 -45.605469 16.796875 -47.671875 18.925781 -48.042969 Z M 18.925781 -48.042969 "/></g></g></g><g fill="#b0d6ed" fill-opacity="1"><g transform="translate(261.323471, 180.886894)"><g><path d="M 42.277344 -35.03125 C 40.339844 -25.339844 36.792969 -17.757812 32.902344 -17.082031 C 31.605469 -16.855469 30.75 -17.945312 30.523438 -19.242188 C 30.425781 -19.800781 30.390625 -20.554688 30.539062 -21.34375 L 33.359375 -37.484375 C 33.59375 -39.433594 33.671875 -41.164062 33.398438 -42.738281 C 31.867188 -51.539062 20.109375 -53.308594 14.648438 -53.980469 C 14.796875 -54.769531 14.746094 -55.617188 14.617188 -56.359375 C 13.875 -60.617188 9.449219 -63.570312 5.28125 -62.84375 C -0.183594 -61.894531 -2.585938 -56.511719 -1.667969 -51.234375 C -1.261719 -48.917969 -0.0117188 -46.65625 1.792969 -45.0625 L -1.792969 -25.640625 C -1.847656 -24.867188 -1.8125 -24.109375 -1.714844 -23.554688 C -1.183594 -20.5 1.5 -19.34375 4.09375 -19.796875 C 6.683594 -20.246094 9.113281 -22.195312 9.707031 -25.351562 L 12.476562 -40.148438 C 15.214844 -39.765625 18.753906 -39.714844 19.300781 -36.566406 C 19.382812 -36.101562 19.386719 -35.53125 19.316406 -34.847656 L 17.207031 -22.839844 C 16.835938 -20.582031 16.804688 -18.574219 17.125 -16.722656 C 18.527344 -8.664062 25.839844 -4.496094 33.523438 -5.835938 C 43.621094 -7.59375 51.222656 -18.171875 53.964844 -34.773438 C 54.050781 -35.363281 54.0625 -35.839844 53.984375 -36.304688 C 53.5 -39.082031 50.121094 -40.402344 47.15625 -39.886719 C 44.75 -39.46875 42.628906 -37.953125 42.277344 -35.03125 Z M 42.277344 -35.03125 "/></g></g></g><g fill="#b0d6ed" fill-opacity="1"><g transform="translate(305.126707, 173.262222)"><g><path d="M 28.515625 -31.871094 C 26.585938 -21.039062 21.605469 -15.113281 16.234375 -14.179688 C 12.898438 -13.601562 10.507812 -15.28125 10.070312 -17.78125 C 9.960938 -18.429688 10.015625 -19.203125 10.085938 -19.886719 L 14.664062 -47.304688 L 20.6875 -48.351562 C 25.410156 -49.171875 27.328125 -52.941406 26.796875 -56 C 26.378906 -58.40625 24.433594 -60.261719 20.914062 -59.648438 L 16.746094 -58.925781 L 19.808594 -78.0625 C 19.878906 -78.742188 19.875 -79.316406 19.777344 -79.871094 C 19.183594 -83.296875 16.292969 -85.65625 12.214844 -84.949219 C 9.160156 -84.414062 6.9375 -81.832031 6.390625 -78.398438 L 2.578125 -56.457031 L -1.3125 -55.78125 C -6.3125 -54.910156 -7.894531 -51.390625 -7.378906 -48.425781 C -6.929688 -45.832031 -4.96875 -43.886719 -2.46875 -44.320312 L 0.589844 -44.851562 L -3.304688 -21.179688 L -3.320312 -21.273438 C -3.675781 -18.921875 -3.691406 -16.820312 -3.351562 -14.875 C -1.707031 -5.425781 7.6875 -1.339844 17.226562 -3 C 29.078125 -5.0625 37.457031 -15.585938 40.09375 -31.691406 C 40.164062 -32.371094 40.238281 -33.050781 40.140625 -33.609375 C 39.65625 -36.386719 36.664062 -37.679688 33.792969 -37.179688 C 31.480469 -36.777344 29.109375 -35.027344 28.515625 -31.871094 Z M 28.515625 -31.871094 "/></g></g></g><g fill="#fd6155" fill-opacity="0.302"><g transform="translate(154.95222, 291.177727)"><g><path d="M 38.765625 -29.984375 C 36.550781 -19.722656 28.359375 -14.464844 21.25 -13.390625 C 15.144531 -12.46875 10.851562 -14.816406 10.273438 -18.664062 C 10.15625 -19.417969 10.128906 -20.183594 10.335938 -21.070312 L 10.765625 -22.761719 C 13.417969 -21.621094 16.582031 -21.070312 19.929688 -21.578125 C 27.539062 -22.726562 33.511719 -28.503906 34.632812 -36.375 C 34.8125 -38.027344 34.824219 -39.65625 34.609375 -41.078125 C 33.40625 -49.023438 26.210938 -54.183594 16.757812 -52.757812 C 9.3125 -51.632812 2.691406 -46.183594 1.027344 -37.375 L -1.746094 -22.324219 C -2.113281 -20.214844 -2.226562 -18.144531 -1.9375 -16.222656 C -0.433594 -6.265625 9.871094 -1.492188 22.085938 -3.335938 C 33.710938 -5.09375 46.070312 -12.777344 49.179688 -29.589844 C 49.328125 -30.296875 49.324219 -30.894531 49.246094 -31.394531 C 48.855469 -33.988281 46.296875 -35.058594 43.789062 -34.679688 C 41.445312 -34.324219 39.125 -32.691406 38.765625 -29.984375 Z M 18 -42.847656 C 20.339844 -43.199219 22.136719 -41.503906 22.503906 -39.078125 C 22.605469 -38.410156 22.621094 -37.726562 22.472656 -37.019531 C 22.054688 -34.132812 19.695312 -32.75 17.183594 -32.371094 C 15.597656 -32.132812 13.957031 -32.226562 12.683594 -32.71875 L 13.683594 -38.003906 C 14.210938 -40.734375 16.074219 -42.554688 18 -42.847656 Z M 18 -42.847656 "/></g></g></g><g fill="#fd6155" fill-opacity="0.302"><g transform="translate(194.602389, 285.188732)"><g><path d="M 26.300781 -28.101562 C 24.34375 -18.394531 19.746094 -13.164062 14.890625 -12.429688 C 11.882812 -11.976562 9.761719 -13.539062 9.421875 -15.796875 C 9.332031 -16.382812 9.398438 -17.078125 9.476562 -17.6875 L 14.152344 -42.265625 L 19.589844 -43.085938 C 23.855469 -43.730469 25.660156 -47.085938 25.242188 -49.84375 C 24.914062 -52.019531 23.199219 -53.730469 20.019531 -53.25 L 16.257812 -52.679688 L 19.398438 -69.839844 C 19.476562 -70.449219 19.484375 -70.964844 19.410156 -71.464844 C 18.941406 -74.5625 16.386719 -76.742188 12.707031 -76.1875 C 9.945312 -75.769531 7.894531 -73.492188 7.332031 -70.414062 L 3.457031 -50.746094 L -0.0546875 -50.214844 C -4.574219 -49.535156 -6.066406 -46.398438 -5.664062 -43.722656 C -5.308594 -41.378906 -3.582031 -39.585938 -1.324219 -39.929688 L 1.433594 -40.34375 L -2.546875 -19.125 L -2.558594 -19.207031 C -2.925781 -17.097656 -2.980469 -15.207031 -2.714844 -13.449219 C -1.425781 -4.917969 6.941406 -1.046875 15.558594 -2.351562 C 26.265625 -3.96875 34.019531 -13.265625 36.714844 -27.707031 C 36.792969 -28.316406 36.871094 -28.925781 36.796875 -29.429688 C 36.417969 -31.9375 33.75 -33.160156 31.15625 -32.769531 C 29.066406 -32.453125 26.902344 -30.929688 26.300781 -28.101562 Z M 26.300781 -28.101562 "/></g></g></g><g fill="#fd6155" fill-opacity="0.302"><g transform="translate(221.955985, 281.057083)"><g><path d="M 44.019531 -31.460938 C 41.855469 -20.867188 37.730469 -15.878906 33.964844 -15.3125 C 32.375 -15.070312 31.234375 -15.839844 31.042969 -17.09375 C 30.992188 -17.429688 31.011719 -17.859375 31.128906 -18.222656 L 35.046875 -38.75 C 35.390625 -40.425781 35.332031 -41.957031 35.117188 -43.378906 C 34.105469 -50.070312 28.050781 -54.460938 21.277344 -53.4375 C 19.269531 -53.136719 17.730469 -52.558594 16.085938 -51.542969 L 19.03125 -67.730469 C 19.246094 -69.132812 19.476562 -70.449219 19.3125 -71.539062 C 18.78125 -75.050781 15.71875 -76.640625 12.957031 -76.226562 C 9.695312 -75.730469 7.976562 -73.503906 7.058594 -68.832031 L -4.425781 -8.914062 C -4.667969 -7.679688 -4.671875 -6.566406 -4.519531 -5.5625 C -3.949219 -1.800781 -0.835938 0.125 2.007812 -0.304688 C 4.433594 -0.667969 6.714844 -2.554688 7.441406 -6.257812 L 13.242188 -36.394531 C 14.515625 -39.839844 16.996094 -42.695312 19.589844 -43.085938 C 21.261719 -43.339844 22.621094 -42.261719 22.847656 -40.757812 C 22.925781 -40.253906 22.917969 -39.738281 22.742188 -39.199219 L 19.277344 -20.792969 C 18.910156 -18.683594 18.855469 -16.792969 19.105469 -15.121094 C 20.292969 -7.257812 27.605469 -4.167969 34.714844 -5.242188 C 42.664062 -6.445312 51.035156 -12.757812 54.429688 -31.066406 C 54.507812 -31.675781 54.515625 -32.191406 54.441406 -32.695312 C 54.050781 -35.285156 51.289062 -36.582031 48.609375 -36.175781 C 46.519531 -35.859375 44.4375 -34.347656 44.019531 -31.460938 Z M 44.019531 -31.460938 "/></g></g></g><g fill="#fd6155" fill-opacity="0.502"><g transform="translate(151.098915, 286.680307)"><g><path d="M 38.765625 -29.984375 C 36.550781 -19.722656 28.359375 -14.464844 21.25 -13.390625 C 15.144531 -12.46875 10.851562 -14.816406 10.273438 -18.664062 C 10.15625 -19.417969 10.128906 -20.183594 10.335938 -21.070312 L 10.765625 -22.761719 C 13.417969 -21.621094 16.582031 -21.070312 19.929688 -21.578125 C 27.539062 -22.726562 33.511719 -28.503906 34.632812 -36.375 C 34.8125 -38.027344 34.824219 -39.65625 34.609375 -41.078125 C 33.40625 -49.023438 26.210938 -54.183594 16.757812 -52.757812 C 9.3125 -51.632812 2.691406 -46.183594 1.027344 -37.375 L -1.746094 -22.324219 C -2.113281 -20.214844 -2.226562 -18.144531 -1.9375 -16.222656 C -0.433594 -6.265625 9.871094 -1.492188 22.085938 -3.335938 C 33.710938 -5.09375 46.070312 -12.777344 49.179688 -29.589844 C 49.328125 -30.296875 49.324219 -30.894531 49.246094 -31.394531 C 48.855469 -33.988281 46.296875 -35.058594 43.789062 -34.679688 C 41.445312 -34.324219 39.125 -32.691406 38.765625 -29.984375 Z M 18 -42.847656 C 20.339844 -43.199219 22.136719 -41.503906 22.503906 -39.078125 C 22.605469 -38.410156 22.621094 -37.726562 22.472656 -37.019531 C 22.054688 -34.132812 19.695312 -32.75 17.183594 -32.371094 C 15.597656 -32.132812 13.957031 -32.226562 12.683594 -32.71875 L 13.683594 -38.003906 C 14.210938 -40.734375 16.074219 -42.554688 18 -42.847656 Z M 18 -42.847656 "/></g></g></g><g fill="#fd6155" fill-opacity="0.502"><g transform="translate(190.749083, 280.691312)"><g><path d="M 26.300781 -28.101562 C 24.34375 -18.394531 19.746094 -13.164062 14.890625 -12.429688 C 11.882812 -11.976562 9.761719 -13.539062 9.421875 -15.796875 C 9.332031 -16.382812 9.398438 -17.078125 9.476562 -17.6875 L 14.152344 -42.265625 L 19.589844 -43.085938 C 23.855469 -43.730469 25.660156 -47.085938 25.242188 -49.84375 C 24.914062 -52.019531 23.199219 -53.730469 20.019531 -53.25 L 16.257812 -52.679688 L 19.398438 -69.839844 C 19.476562 -70.449219 19.484375 -70.964844 19.410156 -71.464844 C 18.941406 -74.5625 16.386719 -76.742188 12.707031 -76.1875 C 9.945312 -75.769531 7.894531 -73.492188 7.332031 -70.414062 L 3.457031 -50.746094 L -0.0546875 -50.214844 C -4.574219 -49.535156 -6.066406 -46.398438 -5.664062 -43.722656 C -5.308594 -41.378906 -3.582031 -39.585938 -1.324219 -39.929688 L 1.433594 -40.34375 L -2.546875 -19.125 L -2.558594 -19.207031 C -2.925781 -17.097656 -2.980469 -15.207031 -2.714844 -13.449219 C -1.425781 -4.917969 6.941406 -1.046875 15.558594 -2.351562 C 26.265625 -3.96875 34.019531 -13.265625 36.714844 -27.707031 C 36.792969 -28.316406 36.871094 -28.925781 36.796875 -29.429688 C 36.417969 -31.9375 33.75 -33.160156 31.15625 -32.769531 C 29.066406 -32.453125 26.902344 -30.929688 26.300781 -28.101562 Z M 26.300781 -28.101562 "/></g></g></g><g fill="#fd6155" fill-opacity="0.502"><g transform="translate(218.10268, 276.559664)"><g><path d="M 44.019531 -31.460938 C 41.855469 -20.867188 37.730469 -15.878906 33.964844 -15.3125 C 32.375 -15.070312 31.234375 -15.839844 31.042969 -17.09375 C 30.992188 -17.429688 31.011719 -17.859375 31.128906 -18.222656 L 35.046875 -38.75 C 35.390625 -40.425781 35.332031 -41.957031 35.117188 -43.378906 C 34.105469 -50.070312 28.050781 -54.460938 21.277344 -53.4375 C 19.269531 -53.136719 17.730469 -52.558594 16.085938 -51.542969 L 19.03125 -67.730469 C 19.246094 -69.132812 19.476562 -70.449219 19.3125 -71.539062 C 18.78125 -75.050781 15.71875 -76.640625 12.957031 -76.226562 C 9.695312 -75.730469 7.976562 -73.503906 7.058594 -68.832031 L -4.425781 -8.914062 C -4.667969 -7.679688 -4.671875 -6.566406 -4.519531 -5.5625 C -3.949219 -1.800781 -0.835938 0.125 2.007812 -0.304688 C 4.433594 -0.667969 6.714844 -2.554688 7.441406 -6.257812 L 13.242188 -36.394531 C 14.515625 -39.839844 16.996094 -42.695312 19.589844 -43.085938 C 21.261719 -43.339844 22.621094 -42.261719 22.847656 -40.757812 C 22.925781 -40.253906 22.917969 -39.738281 22.742188 -39.199219 L 19.277344 -20.792969 C 18.910156 -18.683594 18.855469 -16.792969 19.105469 -15.121094 C 20.292969 -7.257812 27.605469 -4.167969 34.714844 -5.242188 C 42.664062 -6.445312 51.035156 -12.757812 54.429688 -31.066406 C 54.507812 -31.675781 54.515625 -32.191406 54.441406 -32.695312 C 54.050781 -35.285156 51.289062 -36.582031 48.609375 -36.175781 C 46.519531 -35.859375 44.4375 -34.347656 44.019531 -31.460938 Z M 44.019531 -31.460938 "/></g></g></g><g fill="#b0d6ed" fill-opacity="1"><g transform="translate(147.245603, 282.182885)"><g><path d="M 38.765625 -29.984375 C 36.550781 -19.722656 28.359375 -14.464844 21.25 -13.390625 C 15.144531 -12.46875 10.851562 -14.816406 10.273438 -18.664062 C 10.15625 -19.417969 10.128906 -20.183594 10.335938 -21.070312 L 10.765625 -22.761719 C 13.417969 -21.621094 16.582031 -21.070312 19.929688 -21.578125 C 27.539062 -22.726562 33.511719 -28.503906 34.632812 -36.375 C 34.8125 -38.027344 34.824219 -39.65625 34.609375 -41.078125 C 33.40625 -49.023438 26.210938 -54.183594 16.757812 -52.757812 C 9.3125 -51.632812 2.691406 -46.183594 1.027344 -37.375 L -1.746094 -22.324219 C -2.113281 -20.214844 -2.226562 -18.144531 -1.9375 -16.222656 C -0.433594 -6.265625 9.871094 -1.492188 22.085938 -3.335938 C 33.710938 -5.09375 46.070312 -12.777344 49.179688 -29.589844 C 49.328125 -30.296875 49.324219 -30.894531 49.246094 -31.394531 C 48.855469 -33.988281 46.296875 -35.058594 43.789062 -34.679688 C 41.445312 -34.324219 39.125 -32.691406 38.765625 -29.984375 Z M 18 -42.847656 C 20.339844 -43.199219 22.136719 -41.503906 22.503906 -39.078125 C 22.605469 -38.410156 22.621094 -37.726562 22.472656 -37.019531 C 22.054688 -34.132812 19.695312 -32.75 17.183594 -32.371094 C 15.597656 -32.132812 13.957031 -32.226562 12.683594 -32.71875 L 13.683594 -38.003906 C 14.210938 -40.734375 16.074219 -42.554688 18 -42.847656 Z M 18 -42.847656 "/></g></g></g><g fill="#b0d6ed" fill-opacity="1"><g transform="translate(186.895772, 276.19389)"><g><path d="M 26.300781 -28.101562 C 24.34375 -18.394531 19.746094 -13.164062 14.890625 -12.429688 C 11.882812 -11.976562 9.761719 -13.539062 9.421875 -15.796875 C 9.332031 -16.382812 9.398438 -17.078125 9.476562 -17.6875 L 14.152344 -42.265625 L 19.589844 -43.085938 C 23.855469 -43.730469 25.660156 -47.085938 25.242188 -49.84375 C 24.914062 -52.019531 23.199219 -53.730469 20.019531 -53.25 L 16.257812 -52.679688 L 19.398438 -69.839844 C 19.476562 -70.449219 19.484375 -70.964844 19.410156 -71.464844 C 18.941406 -74.5625 16.386719 -76.742188 12.707031 -76.1875 C 9.945312 -75.769531 7.894531 -73.492188 7.332031 -70.414062 L 3.457031 -50.746094 L -0.0546875 -50.214844 C -4.574219 -49.535156 -6.066406 -46.398438 -5.664062 -43.722656 C -5.308594 -41.378906 -3.582031 -39.585938 -1.324219 -39.929688 L 1.433594 -40.34375 L -2.546875 -19.125 L -2.558594 -19.207031 C -2.925781 -17.097656 -2.980469 -15.207031 -2.714844 -13.449219 C -1.425781 -4.917969 6.941406 -1.046875 15.558594 -2.351562 C 26.265625 -3.96875 34.019531 -13.265625 36.714844 -27.707031 C 36.792969 -28.316406 36.871094 -28.925781 36.796875 -29.429688 C 36.417969 -31.9375 33.75 -33.160156 31.15625 -32.769531 C 29.066406 -32.453125 26.902344 -30.929688 26.300781 -28.101562 Z M 26.300781 -28.101562 "/></g></g></g><g fill="#b0d6ed" fill-opacity="1"><g transform="translate(214.249368, 272.062242)"><g><path d="M 44.019531 -31.460938 C 41.855469 -20.867188 37.730469 -15.878906 33.964844 -15.3125 C 32.375 -15.070312 31.234375 -15.839844 31.042969 -17.09375 C 30.992188 -17.429688 31.011719 -17.859375 31.128906 -18.222656 L 35.046875 -38.75 C 35.390625 -40.425781 35.332031 -41.957031 35.117188 -43.378906 C 34.105469 -50.070312 28.050781 -54.460938 21.277344 -53.4375 C 19.269531 -53.136719 17.730469 -52.558594 16.085938 -51.542969 L 19.03125 -67.730469 C 19.246094 -69.132812 19.476562 -70.449219 19.3125 -71.539062 C 18.78125 -75.050781 15.71875 -76.640625 12.957031 -76.226562 C 9.695312 -75.730469 7.976562 -73.503906 7.058594 -68.832031 L -4.425781 -8.914062 C -4.667969 -7.679688 -4.671875 -6.566406 -4.519531 -5.5625 C -3.949219 -1.800781 -0.835938 0.125 2.007812 -0.304688 C 4.433594 -0.667969 6.714844 -2.554688 7.441406 -6.257812 L 13.242188 -36.394531 C 14.515625 -39.839844 16.996094 -42.695312 19.589844 -43.085938 C 21.261719 -43.339844 22.621094 -42.261719 22.847656 -40.757812 C 22.925781 -40.253906 22.917969 -39.738281 22.742188 -39.199219 L 19.277344 -20.792969 C 18.910156 -18.683594 18.855469 -16.792969 19.105469 -15.121094 C 20.292969 -7.257812 27.605469 -4.167969 34.714844 -5.242188 C 42.664062 -6.445312 51.035156 -12.757812 54.429688 -31.066406 C 54.507812 -31.675781 54.515625 -32.191406 54.441406 -32.695312 C 54.050781 -35.285156 51.289062 -36.582031 48.609375 -36.175781 C 46.519531 -35.859375 44.4375 -34.347656 44.019531 -31.460938 Z M 44.019531 -31.460938 "/></g></g></g></svg>